<svg viewBox="0 0 200 200" fill="none" stroke="#71717A" stroke-width="1.3" stroke-linecap="round" stroke-linejoin="round" xmlns="http://www.w3.org/2000/svg">
  <path d="M 22,72 12,88 40,92" />
  <path d="M 178,72 188,88 160,92" />
  <path d="M 40,92 48,183 H 152 L 160,92" />
  <path d="M 65,44 H 22 L 40,92" />
  <path d="M 135,44 H 178 L 160,92" />
  <path d="M 65,44 C 65,34 75,28 100,28 C 125,28 135,34 135,44" />
  <path d="M 60,44 C 55,30 70,18 100,14 C 130,18 145,30 140,44" />
  <path d="M 80,33 C 78,40 75,48 72,55" stroke-width="0.9" />
  <path d="M 120,33 C 122,40 125,48 128,55" stroke-width="0.9" />
  <circle cx="72" cy="56" r="1.5" fill="#71717A" stroke="none" />
  <circle cx="128" cy="56" r="1.5" fill="#71717A" stroke="none" />
  <path d="M 75,140 C 75,132 125,132 125,140 V 165 H 75 Z" stroke-width="0.9" />
  <path d="M 48,183 H 152" />
  <path d="M 46,188 H 154" stroke-width="0.7" />
  <path d="M 44,179 H 48" />
  <path d="M 152,179 H 156" />
  <path d="M 44,179 V 191" />
  <path d="M 156,179 V 191" />
  <path d="M 14,86 41,90" stroke-dasharray="2 2" stroke-width="0.8" />
  <path d="M 186,86 159,90" stroke-dasharray="2 2" stroke-width="0.8" />
</svg>
