<svg viewBox="0 0 200 200" fill="none" stroke="#71717A" stroke-width="1.3" stroke-linecap="round" stroke-linejoin="round" xmlns="http://www.w3.org/2000/svg">
  <path d="M 18,62 10,85 38,90" />
  <path d="M 182,62 190,85 162,90" />
  <path d="M 38,90 46,185 H 154 L 162,90" />
  <path d="M 68,38 H 18 L 38,90" />
  <path d="M 132,38 H 182 L 162,90" />
  <path d="M 68,38 C 68,28 78,16 100,10 C 122,16 132,28 132,38" />
  <path d="M 63,38 C 58,24 75,12 100,6 C 125,12 142,24 137,38" />
  <path d="M 100,6 V 22" stroke-width="0.8" stroke-dasharray="2 2" />
  <path d="M 46,185 H 154" />
  <path d="M 44,190 H 156" stroke-width="0.7" />
  <path d="M 12,83 39,88" stroke-dasharray="2 2" stroke-width="0.8" />
  <path d="M 188,83 161,88" stroke-dasharray="2 2" stroke-width="0.8" />
</svg>
